<svg id="Layer_1" data-name="Layer 1" xmlns="http://www.w3.org/2000/svg" viewBox="0 0 12.12 12.6"><defs><style>.cls-1{fill:#b7a5d0;}</style></defs><title>Untitled-2</title><path class="cls-1" d="M1.06,10.4V2.88l0,0A1.56,1.56,0,0,1,2,1.6a3.52,3.52,0,0,1,.43-.13H10l.08,0a1.61,1.61,0,0,1,1.33,1.56v7.18a1.6,1.6,0,0,1-1.58,1.58c-2.39,0-4.79,0-7.18,0a1.51,1.51,0,0,1-1.43-1A2.35,2.35,0,0,1,1.06,10.4ZM6.59,9.22A2.59,2.59,0,1,0,3.64,6.67,2.55,2.55,0,0,0,5.8,9.18V7.38H5.16V6.64H5.8V6.58c0-.25,0-.5,0-.75a.81.81,0,0,1,.53-.7,1.8,1.8,0,0,1,.95,0,.08.08,0,0,1,0,.06c0,.19,0,.39,0,.6H7A.34.34,0,0,0,6.63,6c0,.2,0,.39,0,.6h.69l-.13.75h-.6Z"/></svg>