<svg id="Layer_1" data-name="Layer 1" xmlns="http://www.w3.org/2000/svg" viewBox="0 0 12.24 12.6"><defs><style>.cls-1{fill:#b7a5d0;}</style></defs><title>Untitled-2</title><path class="cls-1" d="M1,10.4V2.89a.14.14,0,0,1,0-.06A1.59,1.59,0,0,1,2.11,1.56l.32-.09H9.94l.05,0a1.6,1.6,0,0,1,1.36,1.62v7.08a1.6,1.6,0,0,1-1.61,1.62H2.63a1.55,1.55,0,0,1-1.48-1A3.52,3.52,0,0,1,1,10.4ZM5.69,6.47a.73.73,0,0,0,.4-.89.58.58,0,0,0-.33-.43A1.42,1.42,0,0,0,5.15,5H3.61V8.19H5.19a1.79,1.79,0,0,0,.51-.11.78.78,0,0,0,.56-.8.77.77,0,0,0-.53-.79Zm3.09.74a4.06,4.06,0,0,0,0-.51A1.12,1.12,0,0,0,7,6a1.33,1.33,0,0,0-.3,1.81,1.12,1.12,0,0,0,.84.44,1.06,1.06,0,0,0,1.12-.61,1.62,1.62,0,0,0,.06-.17h-.5a.07.07,0,0,0-.07,0,.58.58,0,0,1-.63.24.51.51,0,0,1-.43-.57ZM7,5.25v.29H8.25v-.3H7Z"/><path class="cls-1" d="M4.3,7.65V6.78h.84a.38.38,0,0,1,.4.27.45.45,0,0,1-.12.5.39.39,0,0,1-.19.08Z"/><path class="cls-1" d="M4.31,5.57c.28,0,.55,0,.83,0a.31.31,0,0,1,.3.29.34.34,0,0,1-.24.41l-.15,0H4.31Z"/><path class="cls-1" d="M7.12,6.81a.48.48,0,0,1,.49-.49.49.49,0,0,1,.53.49Z"/></svg>