<svg id="Layer_1" data-name="Layer 1" xmlns="http://www.w3.org/2000/svg" viewBox="0 0 13.32 12.6"><defs><style>.cls-1{fill:#b7a5d0;}</style></defs><title>Untitled-2</title><path class="cls-1" d="M1.54,10.4V2.89a.14.14,0,0,1,0-.06A1.59,1.59,0,0,1,2.63,1.56,3,3,0,0,1,3,1.47h7.51l0,0a1.6,1.6,0,0,1,1.36,1.62v7.08a1.61,1.61,0,0,1-1.62,1.62H3.15a1.55,1.55,0,0,1-1.48-1A3.52,3.52,0,0,1,1.54,10.4ZM7,9.22V7.41a.73.73,0,0,1,.32-.67.54.54,0,0,1,.86.36,1.32,1.32,0,0,1,0,.28c0,.58,0,1.15,0,1.72v.12h1V9.09c0-.65,0-1.31,0-2a3.11,3.11,0,0,0,0-.43,1.22,1.22,0,0,0-1.76-.91,1.44,1.44,0,0,0-.5.42V5.78h-1V9.22ZM5.28,5.78H4.19V9.22H5.28Zm.07-1.11a.59.59,0,0,0-.61-.61.61.61,0,0,0-.62.61.62.62,0,0,0,1.23,0Z"/></svg>