<svg id="Layer_1" data-name="Layer 1" xmlns="http://www.w3.org/2000/svg" viewBox="0 0 13.8 12.6"><defs><style>.cls-1{fill:#b7a5d0;}</style></defs><title>Untitled-2</title><path class="cls-1" d="M3.35,1.47h7.51l.05,0a1.6,1.6,0,0,1,1.36,1.62v7.08a1.61,1.61,0,0,1-1.62,1.62H3.55a1.55,1.55,0,0,1-1.48-1,2.35,2.35,0,0,1-.13-.43V2.89a.14.14,0,0,1,0-.06A1.57,1.57,0,0,1,3,1.56,3,3,0,0,1,3.35,1.47ZM9.79,6.6V5.52a1.75,1.75,0,0,0-.25-.86A1.58,1.58,0,0,0,8.15,4H6a1.53,1.53,0,0,0-.85.25,1.55,1.55,0,0,0-.7,1.38c0,.73,0,1.45,0,2.17a1.64,1.64,0,0,0,.26.86,1.55,1.55,0,0,0,1.37.7H8.23A1.54,1.54,0,0,0,9.4,8.8a1.7,1.7,0,0,0,.38-1.13C9.79,7.32,9.79,7,9.79,6.6Z"/><path class="cls-1" d="M7.06,8.84H6a1.09,1.09,0,0,1-.84-.37,1.15,1.15,0,0,1-.2-.58,1.67,1.67,0,0,1,0-.32v-2a1.33,1.33,0,0,1,.2-.72.8.8,0,0,1,.63-.36,3.26,3.26,0,0,1,.45,0h2a1.37,1.37,0,0,1,.72.2.82.82,0,0,1,.37.63,3.73,3.73,0,0,1,0,.46c0,.66,0,1.32,0,2a1.31,1.31,0,0,1-.2.72.82.82,0,0,1-.63.37L8,8.84ZM7.1,8A1.39,1.39,0,1,0,5.72,6.64,1.38,1.38,0,0,0,7.1,8ZM8.54,4.9a.31.31,0,0,0-.33.32.31.31,0,0,0,.31.32.33.33,0,0,0,.33-.31A.31.31,0,0,0,8.54,4.9Z"/><path class="cls-1" d="M8,6.63a.94.94,0,0,1-.9.92A.91.91,0,1,1,8,6.63Z"/></svg>