<svg id="Layer_1" data-name="Layer 1" xmlns="http://www.w3.org/2000/svg" viewBox="0 0 13.2 12.6"><defs><style>.cls-1{fill:#b7a5d0;}</style></defs><title>Untitled-2</title><path class="cls-1" d="M11.68,2.89V10.4s0,0,0,0a1.61,1.61,0,0,1-1.6,1.36H2.94a1.6,1.6,0,0,1-1.6-1.6c0-2.38,0-4.76,0-7.14a1.54,1.54,0,0,1,1-1.46,3.22,3.22,0,0,1,.44-.14h7.51l.06,0a1.56,1.56,0,0,1,1.22,1A2.71,2.71,0,0,1,11.68,2.89ZM9.09,6.64A2.59,2.59,0,1,0,6.5,9.23,2.59,2.59,0,0,0,9.09,6.64Z"/><path class="cls-1" d="M7.37,8.68A2.22,2.22,0,0,1,5.16,8.4,3,3,0,0,1,6.9,7,8.24,8.24,0,0,1,7.37,8.68Z"/><path class="cls-1" d="M4.31,6.6c.32,0,.64,0,1-.08s.81-.14,1.21-.23a.11.11,0,0,1,.15.07l.13.28A3.45,3.45,0,0,0,4.87,8.11,2,2,0,0,1,4.31,6.6Z"/><path class="cls-1" d="M6.39,5.91a7.62,7.62,0,0,1-2,.28A2.16,2.16,0,0,1,5.58,4.65Z"/><path class="cls-1" d="M8,5a2.68,2.68,0,0,1-1.14.78L6,4.5A2.16,2.16,0,0,1,8,5Z"/><path class="cls-1" d="M7,6.11a3.09,3.09,0,0,0,1.22-.86A2.11,2.11,0,0,1,8.7,6.61c-.2,0-.41-.06-.62-.07H7.26c-.07,0-.09,0-.12-.07S7,6.24,7,6.11Z"/><path class="cls-1" d="M8.68,7a2.21,2.21,0,0,1-.92,1.46L7.33,6.91A2.9,2.9,0,0,1,8.68,7Z"/></svg>