<svg id="Layer_1" data-name="Layer 1" xmlns="http://www.w3.org/2000/svg" viewBox="0 0 15.24 12.6"><defs><style>.cls-1{fill:#b7a5d0;}</style></defs><title>Untitled-2</title><path class="cls-1" d="M1.38,10.4V2.88l0,0a1.56,1.56,0,0,1,1-1.23,2.7,2.7,0,0,1,.43-.13H10.3l.07,0a1.61,1.61,0,0,1,1.34,1.56v7.18a1.6,1.6,0,0,1-1.58,1.58c-2.39,0-4.79,0-7.18,0a1.51,1.51,0,0,1-1.43-1A2.35,2.35,0,0,1,1.38,10.4ZM8.81,5.07c0-.31-.12-.41-.37-.35A2.59,2.59,0,0,0,8,4.86L5.11,6.06l-1.28.56c-.09,0-.19.1-.19.21s.12.16.21.19l.74.23a.91.91,0,0,0,.84-.16L7.09,6a2.61,2.61,0,0,1,.28-.17.37.37,0,0,1,.15,0,.33.33,0,0,1,0,.14.45.45,0,0,1-.11.13L6.05,7.33c-.25.24-.23.37,0,.57l1.36.91A2,2,0,0,0,7.71,9c.25.09.4,0,.48-.22a3.5,3.5,0,0,0,.13-.56c.13-.76.26-1.52.38-2.27C8.74,5.6,8.77,5.31,8.81,5.07Z"/></svg>